<?xml version="1.0" encoding="UTF-8" standalone="no"?>
<svg
   xmlns:dc="http://purl.org/dc/elements/1.1/"
   xmlns:cc="http://creativecommons.org/ns#"
   xmlns:rdf="http://www.w3.org/1999/02/22-rdf-syntax-ns#"
   xmlns:svg="http://www.w3.org/2000/svg"
   xmlns="http://www.w3.org/2000/svg"
   xmlns:sodipodi="http://sodipodi.sourceforge.net/DTD/sodipodi-0.dtd"
   xmlns:inkscape="http://www.inkscape.org/namespaces/inkscape"
   version="1.0"
   width="300.000000pt"
   height="647.000000pt"
   viewBox="0 0 300.000000 647.000000"
   preserveAspectRatio="xMidYMid meet"
   id="svg3773"
   sodipodi:docname="logo.svg"
   inkscape:version="0.92.4 5da689c313, 2019-01-14">
  <defs
     id="defs3777" />
  <sodipodi:namedview
     pagecolor="#ffffff"
     bordercolor="#666666"
     borderopacity="1"
     objecttolerance="10"
     gridtolerance="10"
     guidetolerance="10"
     inkscape:pageopacity="0"
     inkscape:pageshadow="2"
     inkscape:window-width="1366"
     inkscape:window-height="747"
     id="namedview3775"
     showgrid="false"
     inkscape:zoom="0.44344448"
     inkscape:cx="-318.71285"
     inkscape:cy="622.4683"
     inkscape:window-x="0"
     inkscape:window-y="21"
     inkscape:window-maximized="0"
     inkscape:current-layer="svg3773" />
  <metadata
     id="metadata3765">
Created by potrace 1.10, written by Peter Selinger 2001-2011
<rdf:RDF>
  <cc:Work
     rdf:about="">
    <dc:format>image/svg+xml</dc:format>
    <dc:type
       rdf:resource="http://purl.org/dc/dcmitype/StillImage" />
    <dc:title></dc:title>
  </cc:Work>
</rdf:RDF>
</metadata>
  <g
     transform="translate(0.000000,647.000000) scale(0.100000,-0.100000)"
     fill="#000000"
     stroke="none"
     id="g3771">
    <g
       id="g4586">
      <path
         style="fill:#fd0000;fill-opacity:0.78801841;stroke:#000000;stroke-width:0.13333334;stroke-opacity:0.25806454"
         d="M 202.10547 1.3828125 C 188.89814 1.3766602 174.8918 2.3328125 167.4668 4.1328125 C 139.4668 11.066146 112.13333 29.866666 98 52 C 86.266667 70.4 82.134245 84.933333 82.267578 108 C 82.267578 130.8 86.800651 151.86667 97.333984 178 C 108.26732 205.46667 129.86706 240.53372 150.40039 264.40039 C 152.26706 266.53372 151.99987 266.66667 146.5332 266 C 143.3332 265.73333 128.66667 265.06602 114 264.66602 C 87.466666 263.99935 69.065755 262.40052 59.732422 259.86719 C 50.399088 257.46719 35.599609 238.93424 29.599609 222.26758 C 28.399609 218.80091 27.066016 216 26.666016 216 C 26.266016 216 22.133464 224.93242 17.466797 235.73242 C -3.59987 283.99909 -4.0007815 298.53294 15.199219 319.59961 C 24.932552 330.39961 52.933203 348.26693 48.533203 340.93359 C 47.866536 340.13359 44.267578 335.46745 40.267578 330.80078 C 20.800911 307.73411 18.399609 296.40091 31.599609 290.26758 C 37.199609 287.86758 40.132682 287.46628 54.666016 287.59961 C 90.932683 288.13294 136.13424 298.40065 158.26758 311.33398 C 185.46758 327.33398 192.53255 353.46641 177.19922 381.06641 L 173.19922 388.13281 L 174.66602 405.06641 C 179.19935 458.26641 179.19987 503.73398 174.5332 561.33398 C 172.1332 590.00065 171.4668 608.13333 171.4668 644 C 171.4668 691.6 172.40078 706.26602 178.80078 752.66602 C 183.06745 783.86602 197.46732 860.5332 199.33398 862.5332 C 200.66732 863.7332 201.46602 861.3332 204.66602 846.5332 C 213.73268 803.59987 221.86758 752.93268 226.26758 712.66602 C 229.73424 680.13268 229.46576 610.4 225.73242 562 C 220.53242 496 220.53346 453.86706 225.4668 402.40039 L 226.80078 388.26758 L 222.80078 381.06641 C 204.53411 348.26641 217.46575 319.46667 257.73242 304 C 290.26576 291.46667 346.66628 283.59922 365.59961 289.19922 C 381.33294 293.73255 380.40039 305.06732 362.40039 327.33398 C 350.00039 342.66732 350.00039 342.66602 352.40039 342.66602 C 356.13372 342.66602 378.00078 327.19961 384.80078 319.59961 C 395.20078 308.26628 398.66602 300.4 398.66602 288 C 398.66602 275.86667 395.20039 264.80013 382.40039 235.4668 C 374.80039 217.73346 372 213.06628 372 217.59961 C 372 220.79961 363.86667 236.53268 358 244.66602 C 349.46667 256.66602 344.53268 259.6 328.66602 262 C 321.33268 263.06667 302.13333 264.39935 286 264.66602 C 269.86667 265.06602 254.66706 265.73333 252.40039 266 C 247.60039 266.53333 246.80091 265.3332 250.26758 262.5332 C 251.46758 261.46654 256.79948 254.79909 262.13281 247.73242 C 310.39948 182.93242 328.93333 113.33385 310 67.867188 C 302 48.800521 284.66706 29.067578 266.40039 18.267578 C 256.00039 12.134245 239.6 5.7325521 228 3.1992188 C 222.16667 1.9742187 212.37783 1.3875977 202.10547 1.3828125 z M 195.5 22.746094 C 205.85286 22.666667 217.80078 23.583984 224.80078 25.333984 C 256.93411 33.600651 279.60013 54.667317 291.4668 87.333984 C 294.80013 96.400651 294.79961 123.86706 291.59961 140.40039 C 286.79961 164.40039 276.40091 189.99935 262.26758 212.66602 C 252.80091 227.99935 244.00078 238.93411 226.80078 256.80078 L 212.93359 271.19922 L 210.40039 267.86719 C 208.00039 264.93385 207.73424 263.19935 208.26758 248.66602 C 209.06758 229.46602 211.86602 220.66641 220.66602 211.06641 L 226.40039 204.5332 L 221.06641 200.13281 C 214.66641 194.79948 207.06732 183.33294 203.33398 173.59961 C 201.86732 169.73294 200.40052 166.66602 199.86719 166.66602 C 199.46719 166.66602 197.73281 170.13424 196.13281 174.26758 C 192.13281 184.66758 186.26732 193.73242 179.33398 199.73242 L 173.73242 204.66602 L 179.59961 211.33398 C 188.13294 221.06732 190.79961 229.46602 191.59961 248.66602 C 192.26628 263.19935 192.13294 264.93333 189.59961 268 L 187.06641 271.19922 L 183.19922 267.19922 C 143.33255 225.99922 129.0668 204.66576 115.4668 165.73242 C 106.53346 139.86575 103.19922 109.99935 107.19922 92.666016 C 113.33255 66.932682 131.7332 44.133333 156.5332 32 C 164.5332 28 168.4 26.666667 180 24 C 183.65 23.2 189.28828 22.79375 195.5 22.746094 z "
         transform="matrix(7.4999999,0,0,-7.4999999,0,6470)"
         id="path3767" />
    </g>
  </g>
</svg>
